<svg width="115" height="94" viewBox="0 0 115 94" fill="none" xmlns="http://www.w3.org/2000/svg">
<rect width="115" height="94" stroke="#BCC1CA"/>
<path d="M49.9999 5.42432L33.8242 64.189L28.4323 42.1523C35.458 42.1523 41.1768 44.1927 45.5884 48.2736C49.9999 52.3545 52.2057 57.9861 52.2057 65.1684C52.2057 72.1875 49.9182 77.9007 45.3433 82.3081C40.9316 86.5522 35.3764 88.6743 28.6773 88.6743C21.8149 88.6743 16.0962 86.5522 11.5212 82.3081C7.10968 77.9007 4.90384 72.1875 4.90384 65.1684C4.90384 63.0464 5.06724 61.0059 5.39402 59.0471C5.7208 56.925 6.37436 54.4765 7.35473 51.7015C8.33504 48.9265 9.72385 45.2537 11.5212 40.6832L25.7363 5.42432H49.9999ZM107.841 5.42432L91.6648 64.189L86.2728 42.1523C93.2987 42.1523 99.0173 44.1927 103.429 48.2736C107.841 52.3545 110.047 57.9861 110.047 65.1684C110.047 72.1875 107.759 77.9007 103.184 82.3081C98.7723 86.5522 93.2169 88.6743 86.5179 88.6743C79.6555 88.6743 73.9368 86.5522 69.3618 82.3081C64.9502 77.9007 62.7444 72.1875 62.7444 65.1684C62.7444 63.0464 62.9079 61.0059 63.2346 59.0471C63.5614 56.925 64.215 54.4765 65.1953 51.7015C66.1757 48.9265 67.5645 45.2537 69.3618 40.6832L83.5769 5.42432H107.841Z" fill="#F8CEDB"/>
</svg>
